<mxfile host="app.diagrams.net" modified="2023-03-29T15:28:39.753Z" agent="Mozilla/5.0 (Windows NT 10.0; Win64; x64) AppleWebKit/537.36 (KHTML, like Gecko) Chrome/111.0.0.0 Safari/537.36" etag="SaXb7admajLrSiKB5o_i" version="21.1.1" type="device">
  <diagram id="C5RBs43oDa-KdzZeNtuy" name="Page-1">
    <mxGraphModel dx="1209" dy="788" grid="1" gridSize="10" guides="1" tooltips="1" connect="1" arrows="1" fold="1" page="1" pageScale="1" pageWidth="827" pageHeight="1169" math="0" shadow="0">
      <root>
        <mxCell id="WIyWlLk6GJQsqaUBKTNV-0" />
        <mxCell id="WIyWlLk6GJQsqaUBKTNV-1" parent="WIyWlLk6GJQsqaUBKTNV-0" />
        <mxCell id="Ebo7lZOwBb_7yHwu-Tak-17" style="edgeStyle=orthogonalEdgeStyle;rounded=0;orthogonalLoop=1;jettySize=auto;html=1;entryX=0.5;entryY=0;entryDx=0;entryDy=0;" edge="1" parent="WIyWlLk6GJQsqaUBKTNV-1" source="WIyWlLk6GJQsqaUBKTNV-3" target="Ebo7lZOwBb_7yHwu-Tak-4">
          <mxGeometry relative="1" as="geometry">
            <mxPoint x="200" y="136.25" as="targetPoint" />
            <Array as="points">
              <mxPoint x="200" y="176.25" />
              <mxPoint x="200" y="176.25" />
            </Array>
          </mxGeometry>
        </mxCell>
        <mxCell id="Ebo7lZOwBb_7yHwu-Tak-30" style="edgeStyle=orthogonalEdgeStyle;rounded=0;orthogonalLoop=1;jettySize=auto;html=1;entryX=0.417;entryY=-0.06;entryDx=0;entryDy=0;entryPerimeter=0;" edge="1" parent="WIyWlLk6GJQsqaUBKTNV-1" source="WIyWlLk6GJQsqaUBKTNV-3" target="Ebo7lZOwBb_7yHwu-Tak-8">
          <mxGeometry relative="1" as="geometry">
            <mxPoint x="250" y="206.25" as="targetPoint" />
            <Array as="points">
              <mxPoint x="200" y="126.25" />
              <mxPoint x="350" y="126.25" />
            </Array>
          </mxGeometry>
        </mxCell>
        <mxCell id="WIyWlLk6GJQsqaUBKTNV-3" value="Clear Screen&lt;br&gt;Logo" style="rounded=1;whiteSpace=wrap;html=1;fontSize=12;glass=0;strokeWidth=1;shadow=0;" parent="WIyWlLk6GJQsqaUBKTNV-1" vertex="1">
          <mxGeometry x="140" y="66.25" width="120" height="40" as="geometry" />
        </mxCell>
        <mxCell id="Ebo7lZOwBb_7yHwu-Tak-20" style="edgeStyle=orthogonalEdgeStyle;rounded=0;orthogonalLoop=1;jettySize=auto;html=1;entryX=0.5;entryY=0;entryDx=0;entryDy=0;" edge="1" parent="WIyWlLk6GJQsqaUBKTNV-1" source="Ebo7lZOwBb_7yHwu-Tak-4" target="Ebo7lZOwBb_7yHwu-Tak-7">
          <mxGeometry relative="1" as="geometry" />
        </mxCell>
        <mxCell id="Ebo7lZOwBb_7yHwu-Tak-4" value="Deal 2 cards to&lt;br&gt;player 1" style="rounded=1;whiteSpace=wrap;html=1;fontSize=12;glass=0;strokeWidth=1;shadow=0;" vertex="1" parent="WIyWlLk6GJQsqaUBKTNV-1">
          <mxGeometry x="140" y="156.25" width="120" height="40" as="geometry" />
        </mxCell>
        <mxCell id="Ebo7lZOwBb_7yHwu-Tak-33" style="edgeStyle=orthogonalEdgeStyle;rounded=0;orthogonalLoop=1;jettySize=auto;html=1;entryX=0.5;entryY=0;entryDx=0;entryDy=0;" edge="1" parent="WIyWlLk6GJQsqaUBKTNV-1" source="Ebo7lZOwBb_7yHwu-Tak-7" target="Ebo7lZOwBb_7yHwu-Tak-34">
          <mxGeometry relative="1" as="geometry">
            <mxPoint x="320" y="280" as="targetPoint" />
          </mxGeometry>
        </mxCell>
        <mxCell id="Ebo7lZOwBb_7yHwu-Tak-65" style="edgeStyle=orthogonalEdgeStyle;rounded=0;orthogonalLoop=1;jettySize=auto;html=1;entryX=0.5;entryY=0;entryDx=0;entryDy=0;" edge="1" parent="WIyWlLk6GJQsqaUBKTNV-1" source="Ebo7lZOwBb_7yHwu-Tak-7" target="Ebo7lZOwBb_7yHwu-Tak-62">
          <mxGeometry relative="1" as="geometry" />
        </mxCell>
        <mxCell id="Ebo7lZOwBb_7yHwu-Tak-7" value="Is it 21?" style="rounded=1;whiteSpace=wrap;html=1;fontSize=12;glass=0;strokeWidth=1;shadow=0;" vertex="1" parent="WIyWlLk6GJQsqaUBKTNV-1">
          <mxGeometry x="140" y="226.25" width="120" height="40" as="geometry" />
        </mxCell>
        <mxCell id="Ebo7lZOwBb_7yHwu-Tak-8" value="Deal 2 cards to&lt;br&gt;cpu" style="rounded=1;whiteSpace=wrap;html=1;fontSize=12;glass=0;strokeWidth=1;shadow=0;" vertex="1" parent="WIyWlLk6GJQsqaUBKTNV-1">
          <mxGeometry x="300" y="156.25" width="120" height="40" as="geometry" />
        </mxCell>
        <mxCell id="Ebo7lZOwBb_7yHwu-Tak-9" value="N" style="text;html=1;align=center;verticalAlign=middle;resizable=0;points=[];autosize=1;strokeColor=none;fillColor=none;" vertex="1" parent="WIyWlLk6GJQsqaUBKTNV-1">
          <mxGeometry x="610" y="733.75" width="30" height="30" as="geometry" />
        </mxCell>
        <mxCell id="Ebo7lZOwBb_7yHwu-Tak-128" style="edgeStyle=orthogonalEdgeStyle;rounded=0;orthogonalLoop=1;jettySize=auto;html=1;" edge="1" parent="WIyWlLk6GJQsqaUBKTNV-1" source="Ebo7lZOwBb_7yHwu-Tak-21">
          <mxGeometry relative="1" as="geometry">
            <mxPoint x="200" y="690" as="targetPoint" />
          </mxGeometry>
        </mxCell>
        <mxCell id="Ebo7lZOwBb_7yHwu-Tak-21" value="You Win" style="rhombus;whiteSpace=wrap;html=1;" vertex="1" parent="WIyWlLk6GJQsqaUBKTNV-1">
          <mxGeometry x="160" y="570" width="80" height="40" as="geometry" />
        </mxCell>
        <mxCell id="Ebo7lZOwBb_7yHwu-Tak-27" style="edgeStyle=orthogonalEdgeStyle;rounded=0;orthogonalLoop=1;jettySize=auto;html=1;entryX=0.5;entryY=0;entryDx=0;entryDy=0;" edge="1" parent="WIyWlLk6GJQsqaUBKTNV-1" source="Ebo7lZOwBb_7yHwu-Tak-23" target="Ebo7lZOwBb_7yHwu-Tak-26">
          <mxGeometry relative="1" as="geometry" />
        </mxCell>
        <mxCell id="Ebo7lZOwBb_7yHwu-Tak-95" style="edgeStyle=orthogonalEdgeStyle;rounded=0;orthogonalLoop=1;jettySize=auto;html=1;" edge="1" parent="WIyWlLk6GJQsqaUBKTNV-1" source="Ebo7lZOwBb_7yHwu-Tak-23">
          <mxGeometry relative="1" as="geometry">
            <mxPoint x="10" y="660" as="targetPoint" />
            <Array as="points">
              <mxPoint x="190" y="770" />
              <mxPoint x="10" y="770" />
            </Array>
          </mxGeometry>
        </mxCell>
        <mxCell id="Ebo7lZOwBb_7yHwu-Tak-23" value="Do you want to&lt;br&gt;replay?" style="rounded=1;whiteSpace=wrap;html=1;fontSize=12;glass=0;strokeWidth=1;shadow=0;" vertex="1" parent="WIyWlLk6GJQsqaUBKTNV-1">
          <mxGeometry x="140" y="693.75" width="1390" height="40" as="geometry" />
        </mxCell>
        <mxCell id="Ebo7lZOwBb_7yHwu-Tak-25" value="Y" style="text;html=1;align=center;verticalAlign=middle;resizable=0;points=[];autosize=1;strokeColor=none;fillColor=none;" vertex="1" parent="WIyWlLk6GJQsqaUBKTNV-1">
          <mxGeometry x="200" y="733.75" width="30" height="30" as="geometry" />
        </mxCell>
        <mxCell id="Ebo7lZOwBb_7yHwu-Tak-26" value="End" style="ellipse;whiteSpace=wrap;html=1;aspect=fixed;" vertex="1" parent="WIyWlLk6GJQsqaUBKTNV-1">
          <mxGeometry x="585" y="780" width="40" height="40" as="geometry" />
        </mxCell>
        <mxCell id="Ebo7lZOwBb_7yHwu-Tak-31" value="Y" style="text;html=1;align=center;verticalAlign=middle;resizable=0;points=[];autosize=1;strokeColor=none;fillColor=none;" vertex="1" parent="WIyWlLk6GJQsqaUBKTNV-1">
          <mxGeometry x="210" y="266.25" width="30" height="30" as="geometry" />
        </mxCell>
        <mxCell id="Ebo7lZOwBb_7yHwu-Tak-32" value="N" style="text;html=1;align=center;verticalAlign=middle;resizable=0;points=[];autosize=1;strokeColor=none;fillColor=none;" vertex="1" parent="WIyWlLk6GJQsqaUBKTNV-1">
          <mxGeometry x="260" y="216.25" width="30" height="30" as="geometry" />
        </mxCell>
        <mxCell id="Ebo7lZOwBb_7yHwu-Tak-38" style="edgeStyle=orthogonalEdgeStyle;rounded=0;orthogonalLoop=1;jettySize=auto;html=1;entryX=0.5;entryY=0;entryDx=0;entryDy=0;" edge="1" parent="WIyWlLk6GJQsqaUBKTNV-1" source="Ebo7lZOwBb_7yHwu-Tak-34" target="Ebo7lZOwBb_7yHwu-Tak-35">
          <mxGeometry relative="1" as="geometry" />
        </mxCell>
        <mxCell id="Ebo7lZOwBb_7yHwu-Tak-117" style="edgeStyle=orthogonalEdgeStyle;rounded=0;orthogonalLoop=1;jettySize=auto;html=1;" edge="1" parent="WIyWlLk6GJQsqaUBKTNV-1" source="Ebo7lZOwBb_7yHwu-Tak-34" target="Ebo7lZOwBb_7yHwu-Tak-36">
          <mxGeometry relative="1" as="geometry" />
        </mxCell>
        <mxCell id="Ebo7lZOwBb_7yHwu-Tak-34" value="hit or stand?" style="rounded=1;whiteSpace=wrap;html=1;fontSize=12;glass=0;strokeWidth=1;shadow=0;" vertex="1" parent="WIyWlLk6GJQsqaUBKTNV-1">
          <mxGeometry x="570" y="269.38" width="120" height="30" as="geometry" />
        </mxCell>
        <mxCell id="Ebo7lZOwBb_7yHwu-Tak-101" value="" style="edgeStyle=orthogonalEdgeStyle;rounded=0;orthogonalLoop=1;jettySize=auto;html=1;" edge="1" parent="WIyWlLk6GJQsqaUBKTNV-1" source="Ebo7lZOwBb_7yHwu-Tak-173" target="Ebo7lZOwBb_7yHwu-Tak-85">
          <mxGeometry relative="1" as="geometry" />
        </mxCell>
        <mxCell id="Ebo7lZOwBb_7yHwu-Tak-106" value="" style="edgeStyle=orthogonalEdgeStyle;rounded=0;orthogonalLoop=1;jettySize=auto;html=1;" edge="1" parent="WIyWlLk6GJQsqaUBKTNV-1" source="Ebo7lZOwBb_7yHwu-Tak-35" target="Ebo7lZOwBb_7yHwu-Tak-170">
          <mxGeometry relative="1" as="geometry">
            <mxPoint x="765.0000000000002" y="401.8800000000001" as="targetPoint" />
          </mxGeometry>
        </mxCell>
        <mxCell id="Ebo7lZOwBb_7yHwu-Tak-35" value="get another card" style="rounded=1;whiteSpace=wrap;html=1;fontSize=12;glass=0;strokeWidth=1;shadow=0;" vertex="1" parent="WIyWlLk6GJQsqaUBKTNV-1">
          <mxGeometry x="570" y="339.38" width="120" height="30" as="geometry" />
        </mxCell>
        <mxCell id="Ebo7lZOwBb_7yHwu-Tak-119" value="" style="edgeStyle=orthogonalEdgeStyle;rounded=0;orthogonalLoop=1;jettySize=auto;html=1;" edge="1" parent="WIyWlLk6GJQsqaUBKTNV-1" source="Ebo7lZOwBb_7yHwu-Tak-36" target="Ebo7lZOwBb_7yHwu-Tak-118">
          <mxGeometry relative="1" as="geometry" />
        </mxCell>
        <mxCell id="Ebo7lZOwBb_7yHwu-Tak-137" value="" style="edgeStyle=orthogonalEdgeStyle;rounded=0;orthogonalLoop=1;jettySize=auto;html=1;" edge="1" parent="WIyWlLk6GJQsqaUBKTNV-1" source="Ebo7lZOwBb_7yHwu-Tak-36" target="Ebo7lZOwBb_7yHwu-Tak-136">
          <mxGeometry relative="1" as="geometry" />
        </mxCell>
        <mxCell id="Ebo7lZOwBb_7yHwu-Tak-36" value="Is cpu 17-21?" style="rounded=1;whiteSpace=wrap;html=1;fontSize=12;glass=0;strokeWidth=1;shadow=0;" vertex="1" parent="WIyWlLk6GJQsqaUBKTNV-1">
          <mxGeometry x="975" y="265.63" width="120" height="37.5" as="geometry" />
        </mxCell>
        <mxCell id="Ebo7lZOwBb_7yHwu-Tak-39" value="hit" style="text;html=1;align=center;verticalAlign=middle;resizable=0;points=[];autosize=1;strokeColor=none;fillColor=none;" vertex="1" parent="WIyWlLk6GJQsqaUBKTNV-1">
          <mxGeometry x="629" y="304.38" width="40" height="30" as="geometry" />
        </mxCell>
        <mxCell id="Ebo7lZOwBb_7yHwu-Tak-40" value="stand" style="text;html=1;align=center;verticalAlign=middle;resizable=0;points=[];autosize=1;strokeColor=none;fillColor=none;" vertex="1" parent="WIyWlLk6GJQsqaUBKTNV-1">
          <mxGeometry x="690" y="246.25" width="50" height="30" as="geometry" />
        </mxCell>
        <mxCell id="Ebo7lZOwBb_7yHwu-Tak-54" value="N" style="text;html=1;align=center;verticalAlign=middle;resizable=0;points=[];autosize=1;strokeColor=none;fillColor=none;" vertex="1" parent="WIyWlLk6GJQsqaUBKTNV-1">
          <mxGeometry x="210" y="343.75" width="30" height="30" as="geometry" />
        </mxCell>
        <mxCell id="Ebo7lZOwBb_7yHwu-Tak-129" style="edgeStyle=orthogonalEdgeStyle;rounded=0;orthogonalLoop=1;jettySize=auto;html=1;" edge="1" parent="WIyWlLk6GJQsqaUBKTNV-1" source="Ebo7lZOwBb_7yHwu-Tak-55">
          <mxGeometry relative="1" as="geometry">
            <mxPoint x="330" y="690" as="targetPoint" />
          </mxGeometry>
        </mxCell>
        <mxCell id="Ebo7lZOwBb_7yHwu-Tak-55" value="Draw" style="rhombus;whiteSpace=wrap;html=1;" vertex="1" parent="WIyWlLk6GJQsqaUBKTNV-1">
          <mxGeometry x="290" y="570" width="80" height="40" as="geometry" />
        </mxCell>
        <mxCell id="Ebo7lZOwBb_7yHwu-Tak-92" style="edgeStyle=orthogonalEdgeStyle;rounded=0;orthogonalLoop=1;jettySize=auto;html=1;entryX=0.5;entryY=0;entryDx=0;entryDy=0;" edge="1" parent="WIyWlLk6GJQsqaUBKTNV-1" source="Ebo7lZOwBb_7yHwu-Tak-62" target="Ebo7lZOwBb_7yHwu-Tak-55">
          <mxGeometry relative="1" as="geometry" />
        </mxCell>
        <mxCell id="Ebo7lZOwBb_7yHwu-Tak-99" style="edgeStyle=orthogonalEdgeStyle;rounded=0;orthogonalLoop=1;jettySize=auto;html=1;" edge="1" parent="WIyWlLk6GJQsqaUBKTNV-1" source="Ebo7lZOwBb_7yHwu-Tak-62" target="Ebo7lZOwBb_7yHwu-Tak-21">
          <mxGeometry relative="1" as="geometry" />
        </mxCell>
        <mxCell id="Ebo7lZOwBb_7yHwu-Tak-62" value="Is cpu score 21?" style="rounded=1;whiteSpace=wrap;html=1;fontSize=12;glass=0;strokeWidth=1;shadow=0;" vertex="1" parent="WIyWlLk6GJQsqaUBKTNV-1">
          <mxGeometry x="140" y="303.75" width="120" height="40" as="geometry" />
        </mxCell>
        <mxCell id="Ebo7lZOwBb_7yHwu-Tak-81" value="Y" style="text;html=1;align=center;verticalAlign=middle;resizable=0;points=[];autosize=1;strokeColor=none;fillColor=none;" vertex="1" parent="WIyWlLk6GJQsqaUBKTNV-1">
          <mxGeometry x="823" y="498.13" width="30" height="30" as="geometry" />
        </mxCell>
        <mxCell id="Ebo7lZOwBb_7yHwu-Tak-109" style="edgeStyle=orthogonalEdgeStyle;rounded=0;orthogonalLoop=1;jettySize=auto;html=1;entryX=0;entryY=0.5;entryDx=0;entryDy=0;" edge="1" parent="WIyWlLk6GJQsqaUBKTNV-1" source="Ebo7lZOwBb_7yHwu-Tak-85" target="Ebo7lZOwBb_7yHwu-Tak-34">
          <mxGeometry relative="1" as="geometry">
            <Array as="points">
              <mxPoint x="510" y="500" />
              <mxPoint x="510" y="284" />
            </Array>
          </mxGeometry>
        </mxCell>
        <mxCell id="Ebo7lZOwBb_7yHwu-Tak-85" value="is it 21 or under?" style="rounded=1;whiteSpace=wrap;html=1;fontSize=12;glass=0;strokeWidth=1;shadow=0;" vertex="1" parent="WIyWlLk6GJQsqaUBKTNV-1">
          <mxGeometry x="570" y="481.87" width="120" height="33.12" as="geometry" />
        </mxCell>
        <mxCell id="Ebo7lZOwBb_7yHwu-Tak-130" style="edgeStyle=orthogonalEdgeStyle;rounded=0;orthogonalLoop=1;jettySize=auto;html=1;" edge="1" parent="WIyWlLk6GJQsqaUBKTNV-1" source="Ebo7lZOwBb_7yHwu-Tak-87">
          <mxGeometry relative="1" as="geometry">
            <mxPoint x="765" y="690" as="targetPoint" />
          </mxGeometry>
        </mxCell>
        <mxCell id="Ebo7lZOwBb_7yHwu-Tak-87" value="Bust" style="rhombus;whiteSpace=wrap;html=1;fillColor=#dae8fc;strokeColor=#6c8ebf;" vertex="1" parent="WIyWlLk6GJQsqaUBKTNV-1">
          <mxGeometry x="723" y="608.13" width="80" height="40" as="geometry" />
        </mxCell>
        <mxCell id="Ebo7lZOwBb_7yHwu-Tak-93" value="Y" style="text;html=1;align=center;verticalAlign=middle;resizable=0;points=[];autosize=1;strokeColor=none;fillColor=none;" vertex="1" parent="WIyWlLk6GJQsqaUBKTNV-1">
          <mxGeometry x="260" y="287.5" width="30" height="30" as="geometry" />
        </mxCell>
        <mxCell id="Ebo7lZOwBb_7yHwu-Tak-111" value="" style="edgeStyle=orthogonalEdgeStyle;rounded=0;orthogonalLoop=1;jettySize=auto;html=1;" edge="1" parent="WIyWlLk6GJQsqaUBKTNV-1">
          <mxGeometry relative="1" as="geometry">
            <mxPoint x="763" y="470.0100000000001" as="sourcePoint" />
            <mxPoint x="763" y="518.13" as="targetPoint" />
          </mxGeometry>
        </mxCell>
        <mxCell id="Ebo7lZOwBb_7yHwu-Tak-113" style="edgeStyle=orthogonalEdgeStyle;rounded=0;orthogonalLoop=1;jettySize=auto;html=1;entryX=0.5;entryY=0;entryDx=0;entryDy=0;" edge="1" parent="WIyWlLk6GJQsqaUBKTNV-1" target="Ebo7lZOwBb_7yHwu-Tak-87">
          <mxGeometry relative="1" as="geometry">
            <mxPoint x="763" y="628.13" as="targetPoint" />
            <mxPoint x="763" y="548.13" as="sourcePoint" />
          </mxGeometry>
        </mxCell>
        <mxCell id="Ebo7lZOwBb_7yHwu-Tak-114" style="edgeStyle=orthogonalEdgeStyle;rounded=0;orthogonalLoop=1;jettySize=auto;html=1;entryX=0.75;entryY=0;entryDx=0;entryDy=0;" edge="1" parent="WIyWlLk6GJQsqaUBKTNV-1" source="Ebo7lZOwBb_7yHwu-Tak-110" target="Ebo7lZOwBb_7yHwu-Tak-34">
          <mxGeometry relative="1" as="geometry">
            <mxPoint x="890" y="495" as="targetPoint" />
            <Array as="points">
              <mxPoint x="860" y="495" />
              <mxPoint x="860" y="210" />
              <mxPoint x="660" y="210" />
            </Array>
          </mxGeometry>
        </mxCell>
        <mxCell id="Ebo7lZOwBb_7yHwu-Tak-110" value="can you change&lt;br&gt;11 for 1" style="rounded=1;whiteSpace=wrap;html=1;fontSize=12;glass=0;strokeWidth=1;shadow=0;fillColor=#dae8fc;strokeColor=#6c8ebf;" vertex="1" parent="WIyWlLk6GJQsqaUBKTNV-1">
          <mxGeometry x="703" y="514.99" width="120" height="30" as="geometry" />
        </mxCell>
        <mxCell id="Ebo7lZOwBb_7yHwu-Tak-115" value="N" style="text;html=1;align=center;verticalAlign=middle;resizable=0;points=[];autosize=1;strokeColor=none;fillColor=none;" vertex="1" parent="WIyWlLk6GJQsqaUBKTNV-1">
          <mxGeometry x="768" y="548.13" width="30" height="30" as="geometry" />
        </mxCell>
        <mxCell id="Ebo7lZOwBb_7yHwu-Tak-125" value="" style="edgeStyle=orthogonalEdgeStyle;rounded=0;orthogonalLoop=1;jettySize=auto;html=1;entryX=0.5;entryY=0;entryDx=0;entryDy=0;" edge="1" parent="WIyWlLk6GJQsqaUBKTNV-1" source="Ebo7lZOwBb_7yHwu-Tak-118" target="Ebo7lZOwBb_7yHwu-Tak-133">
          <mxGeometry relative="1" as="geometry">
            <mxPoint x="1035" y="479.3800000000001" as="targetPoint" />
          </mxGeometry>
        </mxCell>
        <mxCell id="Ebo7lZOwBb_7yHwu-Tak-118" value="compare scores" style="rounded=1;whiteSpace=wrap;html=1;fontSize=12;glass=0;strokeWidth=1;shadow=0;" vertex="1" parent="WIyWlLk6GJQsqaUBKTNV-1">
          <mxGeometry x="975" y="476.25" width="120" height="37.5" as="geometry" />
        </mxCell>
        <mxCell id="Ebo7lZOwBb_7yHwu-Tak-120" value="Y" style="text;html=1;align=center;verticalAlign=middle;resizable=0;points=[];autosize=1;strokeColor=none;fillColor=none;" vertex="1" parent="WIyWlLk6GJQsqaUBKTNV-1">
          <mxGeometry x="1045" y="303.13" width="30" height="30" as="geometry" />
        </mxCell>
        <mxCell id="Ebo7lZOwBb_7yHwu-Tak-122" value="N" style="text;html=1;align=center;verticalAlign=middle;resizable=0;points=[];autosize=1;strokeColor=none;fillColor=none;" vertex="1" parent="WIyWlLk6GJQsqaUBKTNV-1">
          <mxGeometry x="1095" y="250" width="30" height="30" as="geometry" />
        </mxCell>
        <mxCell id="Ebo7lZOwBb_7yHwu-Tak-131" style="edgeStyle=orthogonalEdgeStyle;rounded=0;orthogonalLoop=1;jettySize=auto;html=1;exitX=0.5;exitY=1;exitDx=0;exitDy=0;" edge="1" parent="WIyWlLk6GJQsqaUBKTNV-1" source="Ebo7lZOwBb_7yHwu-Tak-133">
          <mxGeometry relative="1" as="geometry">
            <mxPoint x="1035" y="690" as="targetPoint" />
            <mxPoint x="965" y="559.3800000000001" as="sourcePoint" />
          </mxGeometry>
        </mxCell>
        <mxCell id="Ebo7lZOwBb_7yHwu-Tak-133" value="Declare winner" style="rhombus;whiteSpace=wrap;html=1;" vertex="1" parent="WIyWlLk6GJQsqaUBKTNV-1">
          <mxGeometry x="970" y="563.75" width="130" height="60" as="geometry" />
        </mxCell>
        <mxCell id="Ebo7lZOwBb_7yHwu-Tak-138" style="edgeStyle=orthogonalEdgeStyle;rounded=0;orthogonalLoop=1;jettySize=auto;html=1;entryX=0.5;entryY=0;entryDx=0;entryDy=0;exitX=0.5;exitY=0;exitDx=0;exitDy=0;" edge="1" parent="WIyWlLk6GJQsqaUBKTNV-1" source="Ebo7lZOwBb_7yHwu-Tak-136" target="Ebo7lZOwBb_7yHwu-Tak-36">
          <mxGeometry relative="1" as="geometry">
            <Array as="points">
              <mxPoint x="1335" y="210" />
              <mxPoint x="1035" y="210" />
            </Array>
          </mxGeometry>
        </mxCell>
        <mxCell id="Ebo7lZOwBb_7yHwu-Tak-150" style="edgeStyle=orthogonalEdgeStyle;rounded=0;orthogonalLoop=1;jettySize=auto;html=1;entryX=0.5;entryY=0;entryDx=0;entryDy=0;" edge="1" parent="WIyWlLk6GJQsqaUBKTNV-1" source="Ebo7lZOwBb_7yHwu-Tak-136" target="Ebo7lZOwBb_7yHwu-Tak-143">
          <mxGeometry relative="1" as="geometry">
            <Array as="points">
              <mxPoint x="1335" y="330" />
              <mxPoint x="1470" y="330" />
            </Array>
          </mxGeometry>
        </mxCell>
        <mxCell id="Ebo7lZOwBb_7yHwu-Tak-156" style="edgeStyle=orthogonalEdgeStyle;rounded=0;orthogonalLoop=1;jettySize=auto;html=1;entryX=0.5;entryY=0;entryDx=0;entryDy=0;" edge="1" parent="WIyWlLk6GJQsqaUBKTNV-1" source="Ebo7lZOwBb_7yHwu-Tak-136" target="Ebo7lZOwBb_7yHwu-Tak-140">
          <mxGeometry relative="1" as="geometry" />
        </mxCell>
        <mxCell id="Ebo7lZOwBb_7yHwu-Tak-157" style="edgeStyle=orthogonalEdgeStyle;rounded=0;orthogonalLoop=1;jettySize=auto;html=1;entryX=0.75;entryY=0;entryDx=0;entryDy=0;" edge="1" parent="WIyWlLk6GJQsqaUBKTNV-1" source="Ebo7lZOwBb_7yHwu-Tak-136" target="Ebo7lZOwBb_7yHwu-Tak-154">
          <mxGeometry relative="1" as="geometry">
            <Array as="points">
              <mxPoint x="1335" y="330" />
              <mxPoint x="1225" y="330" />
            </Array>
          </mxGeometry>
        </mxCell>
        <mxCell id="Ebo7lZOwBb_7yHwu-Tak-136" value="draw another cpu card" style="rounded=1;whiteSpace=wrap;html=1;fontSize=12;glass=0;strokeWidth=1;shadow=0;" vertex="1" parent="WIyWlLk6GJQsqaUBKTNV-1">
          <mxGeometry x="1275" y="265.63" width="120" height="37.5" as="geometry" />
        </mxCell>
        <mxCell id="Ebo7lZOwBb_7yHwu-Tak-139" value="Y" style="text;html=1;align=center;verticalAlign=middle;resizable=0;points=[];autosize=1;strokeColor=none;fillColor=none;" vertex="1" parent="WIyWlLk6GJQsqaUBKTNV-1">
          <mxGeometry x="1530" y="431.87" width="30" height="30" as="geometry" />
        </mxCell>
        <mxCell id="Ebo7lZOwBb_7yHwu-Tak-158" style="edgeStyle=orthogonalEdgeStyle;rounded=0;orthogonalLoop=1;jettySize=auto;html=1;entryX=1;entryY=0.5;entryDx=0;entryDy=0;" edge="1" parent="WIyWlLk6GJQsqaUBKTNV-1" source="Ebo7lZOwBb_7yHwu-Tak-140" target="Ebo7lZOwBb_7yHwu-Tak-118">
          <mxGeometry relative="1" as="geometry">
            <Array as="points">
              <mxPoint x="1335" y="495" />
            </Array>
          </mxGeometry>
        </mxCell>
        <mxCell id="Ebo7lZOwBb_7yHwu-Tak-140" value="is it 17-21" style="rounded=1;whiteSpace=wrap;html=1;fontSize=12;glass=0;strokeWidth=1;shadow=0;" vertex="1" parent="WIyWlLk6GJQsqaUBKTNV-1">
          <mxGeometry x="1275" y="383.12" width="120" height="33.12" as="geometry" />
        </mxCell>
        <mxCell id="Ebo7lZOwBb_7yHwu-Tak-167" style="edgeStyle=orthogonalEdgeStyle;rounded=0;orthogonalLoop=1;jettySize=auto;html=1;" edge="1" parent="WIyWlLk6GJQsqaUBKTNV-1" source="Ebo7lZOwBb_7yHwu-Tak-141">
          <mxGeometry relative="1" as="geometry">
            <mxPoint x="1470" y="680" as="targetPoint" />
          </mxGeometry>
        </mxCell>
        <mxCell id="Ebo7lZOwBb_7yHwu-Tak-141" value="Bust" style="rhombus;whiteSpace=wrap;html=1;fillColor=#dae8fc;strokeColor=#6c8ebf;" vertex="1" parent="WIyWlLk6GJQsqaUBKTNV-1">
          <mxGeometry x="1430" y="570" width="80" height="40" as="geometry" />
        </mxCell>
        <mxCell id="Ebo7lZOwBb_7yHwu-Tak-142" value="" style="edgeStyle=orthogonalEdgeStyle;rounded=0;orthogonalLoop=1;jettySize=auto;html=1;" edge="1" parent="WIyWlLk6GJQsqaUBKTNV-1" source="Ebo7lZOwBb_7yHwu-Tak-143" target="Ebo7lZOwBb_7yHwu-Tak-146">
          <mxGeometry relative="1" as="geometry" />
        </mxCell>
        <mxCell id="Ebo7lZOwBb_7yHwu-Tak-143" value="is it over 21" style="rounded=1;whiteSpace=wrap;html=1;fontSize=12;glass=0;strokeWidth=1;shadow=0;fillColor=#dae8fc;strokeColor=#6c8ebf;" vertex="1" parent="WIyWlLk6GJQsqaUBKTNV-1">
          <mxGeometry x="1410" y="383.12" width="120" height="30" as="geometry" />
        </mxCell>
        <mxCell id="Ebo7lZOwBb_7yHwu-Tak-145" style="edgeStyle=orthogonalEdgeStyle;rounded=0;orthogonalLoop=1;jettySize=auto;html=1;entryX=0.5;entryY=0;entryDx=0;entryDy=0;" edge="1" parent="WIyWlLk6GJQsqaUBKTNV-1" source="Ebo7lZOwBb_7yHwu-Tak-177" target="Ebo7lZOwBb_7yHwu-Tak-141">
          <mxGeometry relative="1" as="geometry">
            <mxPoint x="1470" y="590" as="targetPoint" />
          </mxGeometry>
        </mxCell>
        <mxCell id="Ebo7lZOwBb_7yHwu-Tak-159" style="edgeStyle=orthogonalEdgeStyle;rounded=0;orthogonalLoop=1;jettySize=auto;html=1;" edge="1" parent="WIyWlLk6GJQsqaUBKTNV-1" source="Ebo7lZOwBb_7yHwu-Tak-146">
          <mxGeometry relative="1" as="geometry">
            <mxPoint x="1335" y="310" as="targetPoint" />
            <Array as="points">
              <mxPoint x="1615" y="467" />
              <mxPoint x="1615" y="310" />
            </Array>
          </mxGeometry>
        </mxCell>
        <mxCell id="Ebo7lZOwBb_7yHwu-Tak-146" value="can you change&lt;br&gt;11 for 1" style="rounded=1;whiteSpace=wrap;html=1;fontSize=12;glass=0;strokeWidth=1;shadow=0;fillColor=#dae8fc;strokeColor=#6c8ebf;" vertex="1" parent="WIyWlLk6GJQsqaUBKTNV-1">
          <mxGeometry x="1410" y="451.87" width="120" height="30" as="geometry" />
        </mxCell>
        <mxCell id="Ebo7lZOwBb_7yHwu-Tak-147" value="N" style="text;html=1;align=center;verticalAlign=middle;resizable=0;points=[];autosize=1;strokeColor=none;fillColor=none;" vertex="1" parent="WIyWlLk6GJQsqaUBKTNV-1">
          <mxGeometry x="1475" y="481.87" width="30" height="30" as="geometry" />
        </mxCell>
        <mxCell id="Ebo7lZOwBb_7yHwu-Tak-155" style="edgeStyle=orthogonalEdgeStyle;rounded=0;orthogonalLoop=1;jettySize=auto;html=1;entryX=0;entryY=0.5;entryDx=0;entryDy=0;" edge="1" parent="WIyWlLk6GJQsqaUBKTNV-1" source="Ebo7lZOwBb_7yHwu-Tak-154" target="Ebo7lZOwBb_7yHwu-Tak-136">
          <mxGeometry relative="1" as="geometry">
            <Array as="points">
              <mxPoint x="1115" y="387" />
              <mxPoint x="1115" y="284" />
            </Array>
          </mxGeometry>
        </mxCell>
        <mxCell id="Ebo7lZOwBb_7yHwu-Tak-154" value="is it under 17?" style="rounded=1;whiteSpace=wrap;html=1;fontSize=12;glass=0;strokeWidth=1;shadow=0;" vertex="1" parent="WIyWlLk6GJQsqaUBKTNV-1">
          <mxGeometry x="1135" y="380" width="120" height="33.12" as="geometry" />
        </mxCell>
        <mxCell id="Ebo7lZOwBb_7yHwu-Tak-170" value="is it over 21" style="rounded=1;whiteSpace=wrap;html=1;fontSize=12;glass=0;strokeWidth=1;shadow=0;fillColor=#dae8fc;strokeColor=#6c8ebf;" vertex="1" parent="WIyWlLk6GJQsqaUBKTNV-1">
          <mxGeometry x="705" y="440" width="120" height="30" as="geometry" />
        </mxCell>
        <mxCell id="Ebo7lZOwBb_7yHwu-Tak-172" value="Assess&lt;br&gt;Scores" style="ellipse;whiteSpace=wrap;html=1;fillColor=#f8cecc;strokeColor=#b85450;" vertex="1" parent="WIyWlLk6GJQsqaUBKTNV-1">
          <mxGeometry x="167.5" y="190" width="65" height="44" as="geometry" />
        </mxCell>
        <mxCell id="Ebo7lZOwBb_7yHwu-Tak-174" value="" style="edgeStyle=orthogonalEdgeStyle;rounded=0;orthogonalLoop=1;jettySize=auto;html=1;" edge="1" parent="WIyWlLk6GJQsqaUBKTNV-1" source="Ebo7lZOwBb_7yHwu-Tak-35" target="Ebo7lZOwBb_7yHwu-Tak-173">
          <mxGeometry relative="1" as="geometry">
            <mxPoint x="630" y="369" as="sourcePoint" />
            <mxPoint x="630" y="402" as="targetPoint" />
          </mxGeometry>
        </mxCell>
        <mxCell id="Ebo7lZOwBb_7yHwu-Tak-173" value="Assess&lt;br&gt;Scores" style="ellipse;whiteSpace=wrap;html=1;fillColor=#f8cecc;strokeColor=#b85450;" vertex="1" parent="WIyWlLk6GJQsqaUBKTNV-1">
          <mxGeometry x="597.5" y="401.87" width="65" height="44" as="geometry" />
        </mxCell>
        <mxCell id="Ebo7lZOwBb_7yHwu-Tak-175" value="Assess&lt;br&gt;Scores" style="ellipse;whiteSpace=wrap;html=1;fillColor=#f8cecc;strokeColor=#b85450;" vertex="1" parent="WIyWlLk6GJQsqaUBKTNV-1">
          <mxGeometry x="730.5" y="357.87" width="65" height="44" as="geometry" />
        </mxCell>
        <mxCell id="Ebo7lZOwBb_7yHwu-Tak-176" value="Assess&lt;br&gt;Scores" style="ellipse;whiteSpace=wrap;html=1;fillColor=#f8cecc;strokeColor=#b85450;" vertex="1" parent="WIyWlLk6GJQsqaUBKTNV-1">
          <mxGeometry x="1002.5" y="470.99" width="65" height="44" as="geometry" />
        </mxCell>
        <mxCell id="Ebo7lZOwBb_7yHwu-Tak-178" value="" style="edgeStyle=orthogonalEdgeStyle;rounded=0;orthogonalLoop=1;jettySize=auto;html=1;entryX=0.5;entryY=0;entryDx=0;entryDy=0;" edge="1" parent="WIyWlLk6GJQsqaUBKTNV-1" source="Ebo7lZOwBb_7yHwu-Tak-146" target="Ebo7lZOwBb_7yHwu-Tak-177">
          <mxGeometry relative="1" as="geometry">
            <mxPoint x="1470" y="570" as="targetPoint" />
            <mxPoint x="1470" y="482" as="sourcePoint" />
          </mxGeometry>
        </mxCell>
        <mxCell id="Ebo7lZOwBb_7yHwu-Tak-177" value="Assess&lt;br&gt;Scores" style="ellipse;whiteSpace=wrap;html=1;fillColor=#f8cecc;strokeColor=#b85450;" vertex="1" parent="WIyWlLk6GJQsqaUBKTNV-1">
          <mxGeometry x="1437.5" y="504.13" width="65" height="44" as="geometry" />
        </mxCell>
      </root>
    </mxGraphModel>
  </diagram>
</mxfile>
